<svg id="visual" viewBox="0 0 1280 1024" width="1280" height="1024" xmlns="http://www.w3.org/2000/svg" xmlns:xlink="http://www.w3.org/1999/xlink" version="1.1"><rect x="0" y="0" width="1280" height="1024" fill="#fdf2f2"></rect><defs><linearGradient id="grad1_0" x1="20%" y1="100%" x2="100%" y2="0%"><stop offset="25%" stop-color="#fdf2f2" stop-opacity="1"></stop><stop offset="75%" stop-color="#fdf2f2" stop-opacity="1"></stop></linearGradient></defs><defs><linearGradient id="grad2_0" x1="0%" y1="100%" x2="80%" y2="0%"><stop offset="25%" stop-color="#fdf2f2" stop-opacity="1"></stop><stop offset="75%" stop-color="#fdf2f2" stop-opacity="1"></stop></linearGradient></defs><g transform="translate(1280, 1024)"><path d="M-532.7 0C-445.5 -50.3 -358.2 -100.6 -324.8 -187.5C-291.3 -274.4 -311.5 -397.7 -266.4 -461.4C-221.2 -525 -110.6 -528.9 0 -532.7L0 0Z" fill="#031b88"></path></g><g transform="translate(0, 0)"><path d="M532.7 0C449.7 52.7 366.6 105.4 332.6 192C298.5 278.6 313.6 398.9 266.4 461.4C219.1 523.8 109.6 528.3 0 532.7L0 0Z" fill="#031b88"></path></g></svg>